<mxfile host="app.diagrams.net" modified="2024-07-17T02:31:20.848Z" agent="Mozilla/5.0 (Macintosh; Intel Mac OS X 10_15_7) AppleWebKit/537.36 (KHTML, like Gecko) Chrome/126.0.0.0 Safari/537.36" version="24.5.5" etag="Z-SJWL7GyV4B-_ac6cHL" type="github">
  <diagram name="Page-1" id="D_IX4kyP0td2Q5xGJLHQ">
    <mxGraphModel>
      <root>
        <mxCell id="0" />
        <mxCell id="1" parent="0" />
      </root>
    </mxGraphModel>
  </diagram>
</mxfile>
